<svg width="48" height="48" viewBox="0 0 48 48" fill="none" xmlns="http://www.w3.org/2000/svg">
<circle cx="24" cy="24" r="24" fill="#7fffd4"/>
<path d="M27.0268 17.2304C27.0442 15.8696 27.0519 14.3254 27.0693 12.9646C27.1072 12.1496 27.0606 11.3331 26.9304 10.5263C26.8108 9.91537 26.5794 9.2991 26.105 8.86095C25.9827 8.73175 25.8158 8.64555 25.6325 8.61694C25.27 8.58666 25.0039 8.91439 24.838 9.21005C23.9336 10.8131 23.6559 12.6494 23.3897 14.4429" fill="#111111"/>
<path d="M27.0268 17.2304C27.0442 15.8696 27.0519 14.3254 27.0693 12.9646C27.1072 12.1496 27.0606 11.3331 26.9304 10.5263C26.8108 9.91537 26.5794 9.2991 26.105 8.86095C25.9827 8.73175 25.8158 8.64555 25.6325 8.61694C25.27 8.58666 25.0039 8.91439 24.838 9.21005C23.9336 10.8131 23.6559 12.6494 23.3897 14.4429" stroke="#111111" stroke-width="0.478049" stroke-miterlimit="10"/>
<path d="M15.2985 25.7709C15.0328 21.3701 14.5785 16.8835 14.8596 13.5199C14.9522 12.4244 15.0911 11.0563 15.2968 9.97452C15.6397 8.22927 17.3918 8.01326 17.9421 10.218C18.3717 11.8313 18.6817 13.4742 18.8696 15.1331L18.9861 16.6332C18.9587 16.1069 18.9193 15.6132 18.8696 15.1331L18.7461 13.5679C21.7086 12.3678 25.3533 13.8713 27.0437 16.5869C27.8837 17.9379 28.3226 19.5391 29.3581 20.7461C30.9319 22.5822 33.5017 23.1154 35.859 23.6605C36.8567 23.8885 37.8682 24.144 38.7511 24.6652C39.634 25.1863 40.3866 26.0127 40.5855 27.019C40.7843 28.0254 40.0711 29.7741 37.7928 29.7432C35.8504 29.7175 33.9097 29.606 31.9639 29.5375C30.4707 29.486 28.842 29.474 27.6574 30.3844C26.7865 31.053 26.3065 32.1313 26.1385 33.2148C25.9705 34.2983 26.0768 35.4041 26.1848 36.4962C25.6105 39.6781 21.7634 39.9456 18.4101 38.6718C17.1021 38.1917 15.9023 37.4569 14.8802 36.5099C15.6277 33.5663 15.5437 29.6986 15.2985 25.7709Z" fill="#111111" stroke="#111111" stroke-width="0.478049" stroke-miterlimit="10"/>
<path d="M40.1589 21.5742C40.253 21.715 40.309 21.8768 40.3215 22.0445C40.3341 22.2122 40.3028 22.3802 40.2306 22.5328C40.1568 22.6856 40.0396 22.8145 39.893 22.9044C39.7464 22.9942 39.5764 23.0412 39.4032 23.0397C38.3939 23.0249 38.2863 22.268 38.489 21.6764C38.5539 21.5162 38.6656 21.3781 38.8102 21.2792C38.9548 21.1802 39.126 21.1248 39.3026 21.1198C39.473 21.119 39.6409 21.1602 39.7906 21.2397C39.9403 21.3191 40.067 21.4342 40.1589 21.5742Z" fill="#111111" stroke="white" stroke-width="0.478049" stroke-miterlimit="10"/>
</svg>
